<svg xmlns="http://www.w3.org/2000/svg" xmlns:xlink="http://www.w3.org/1999/xlink" viewBox="0 0 133.05 133.05"><defs><style>.cls-1{fill:url(#New_Gradient_Swatch);}.cls-2{fill:url(#New_Gradient_Swatch-2);}</style><linearGradient id="New_Gradient_Swatch" y1="66.52" x2="133.05" y2="66.52" gradientUnits="userSpaceOnUse"><stop offset="0" stop-color="#dc9f61"/><stop offset="1" stop-color="#f5bd60"/></linearGradient><linearGradient id="New_Gradient_Swatch-2" x1="66.53" y1="82.17" x2="66.53" y2="52.87" xlink:href="#New_Gradient_Swatch"/></defs><title>Oscar_logo</title><g id="Layer_2" data-name="Layer 2"><path class="cls-1" d="M131.75,64.87l-14.67-3.66a50.61,50.61,0,0,0-12.69-28.57c-.41-.45-.83-.91-1.27-1.36s-.89-.92-1.36-1.36-.9-.86-1.36-1.27A50.61,50.61,0,0,0,71.84,16L68.18,1.29a1.71,1.71,0,0,0-3.32,0L61.21,16A50.71,50.71,0,0,0,32.64,28.65l-1.36,1.27c-.46.45-.92.9-1.35,1.36s-.86.91-1.27,1.36A50.61,50.61,0,0,0,16,61.21L1.3,64.87a1.7,1.7,0,0,0,0,3.31L16,71.83A50.58,50.58,0,0,0,28.66,100.4c.41.45.83.91,1.27,1.36s.89.92,1.36,1.36.9.86,1.36,1.27a50.61,50.61,0,0,0,28.56,12.69l3.65,14.67a1.71,1.71,0,0,0,3.32,0l3.66-14.67a50.7,50.7,0,0,0,28.55-12.68c.47-.41.92-.84,1.37-1.28s.93-.89,1.36-1.36.86-.91,1.27-1.36a50.58,50.58,0,0,0,12.69-28.57l14.67-3.65A1.7,1.7,0,0,0,131.75,64.87ZM66.53,2.05,70,15.79c-1.13-.07-2.28-.11-3.42-.11s-2.3,0-3.43.11Zm0,15.86a48.67,48.67,0,0,1,48.24,42.73l-12.46-3.1a37,37,0,0,0-5.57-12.15c-.38-.54-.76-1.06-1.16-1.57a37.1,37.1,0,0,0-6.35-6.36c-.51-.4-1-.78-1.56-1.16l-1.69,1L78.3,42,76,32.72l-.49-2c-.65-.17-1.3-.31-2-.44a37.16,37.16,0,0,0-14,0c-.66.13-1.31.27-2,.44l-.49,2L54.75,42l-7.68-4.63-1.69-1c-.53.37-1.05.75-1.56,1.15a37.1,37.1,0,0,0-6.35,6.36c-.4.51-.79,1-1.16,1.57a37,37,0,0,0-5.57,12.15l-12.46,3.1A48.67,48.67,0,0,1,66.53,17.91Zm35.09,48.61a35.05,35.05,0,0,1-.81,7.51c-.14.67-.31,1.32-.49,2a34.9,34.9,0,0,1-4.6,10c-.36.55-.74,1.07-1.13,1.59a34.29,34.29,0,0,1-7,7l-8.82-5.31-1.6-1-.46,1.82L74,100.81a35.17,35.17,0,0,1-15,0L56.36,90.13l-.46-1.82-1.6,1-8.83,5.31a34.5,34.5,0,0,1-7-7c-.4-.51-.77-1-1.13-1.59a34.65,34.65,0,0,1-4.6-10c-.18-.65-.35-1.3-.49-2a35.22,35.22,0,0,1,0-15c.14-.66.31-1.32.49-2a34.13,34.13,0,0,1,4.6-10c.36-.55.73-1.08,1.13-1.6a34.5,34.5,0,0,1,7-7l8.83,5.31,1.6,1,.46-1.82L59,32.23a35.17,35.17,0,0,1,15,0l2.66,10.69.46,1.81,1.6-1,8.82-5.31a34.29,34.29,0,0,1,7,7c.39.52.77,1.05,1.13,1.6a34.65,34.65,0,0,1,4.6,10c.18.64.35,1.3.49,2A35.05,35.05,0,0,1,101.62,66.52ZM15.86,70l-.06,0L2.06,66.52,15.8,63.09h.06l1.83-.44.4-.1,12.22-3a37.22,37.22,0,0,0,0,14.06l-12.22-3-.4-.1Zm50.67,61L63.1,117.24c1.13.08,2.28.12,3.43.12s2.29,0,3.42-.12Zm0-15.87A48.67,48.67,0,0,1,18.28,72.4l12.46,3.1a37,37,0,0,0,5.57,12.16c.37.53.76,1,1.16,1.57a37.41,37.41,0,0,0,6.35,6.35c.51.4,1,.79,1.56,1.16l1.69-1,7.68-4.62,2.3,9.23.49,2c.64.16,1.3.31,2,.43a36.63,36.63,0,0,0,14,0c.66-.12,1.31-.27,2-.44l.49-2,2.3-9.22L86,95.72l1.69,1c.53-.37,1-.76,1.56-1.15a37.83,37.83,0,0,0,6.35-6.36c.4-.52.78-1,1.16-1.57a37,37,0,0,0,5.57-12.16l12.46-3.1A48.67,48.67,0,0,1,66.53,115.12Zm50.72-45.18-.06,0-1.83.45-.4.1-12.22,3a37.22,37.22,0,0,0,0-14.06l12.22,3,.4.1,1.83.44h.06L131,66.52Z"/><path class="cls-2" d="M81.38,56.81a1.64,1.64,0,0,1,0-.23c-.79-3.34-7.13-2.82-9.18-3a6.73,6.73,0,0,0-1.7.06c-.57.11-1.27.15-1.34,1.06,0,0,0,.09,0,.1A1.66,1.66,0,0,0,70.8,56a13,13,0,0,1,2.69,0,21.56,21.56,0,0,1,3.08.3,4.66,4.66,0,0,1,1,.3.66.66,0,0,1,.15.09c-.37.5-2.85,1.46-5.11,2.05S68,59.83,68,59.84l-.16,0,.08-5.73a1.26,1.26,0,0,0-1.25-1.27h0a1.25,1.25,0,0,0-1.25,1.26l.06,5.79-.41-.08s-2.23-.48-4.57-1.14-4.74-1.55-5.1-2.05a.56.56,0,0,1,.14-.09,4.46,4.46,0,0,1,.95-.3,21.57,21.57,0,0,1,3.09-.3,13.19,13.19,0,0,1,2.69,0,1.65,1.65,0,0,0,1.65-1.17s0-.07,0-.1c-.07-.91-.77-.95-1.34-1.06a6.73,6.73,0,0,0-1.7-.06c-2,.16-8.38-.36-9.18,3a1.64,1.64,0,0,1,0,.23c.27,2.91,6.28,4.17,10.63,5a5.88,5.88,0,0,0-2.58,4c-.15,1.82,1.29,3.55,4.64,5.48-2.55,1.79-4.22,3.49-4.08,5.53.24,1.66,1.71,3.89,4.59,5.29,0,0,0,0,0,0h0s-2-3.09-2.16-4.77c-.13-1,.43-2.44,2.89-4.2l.07,6.17h0a.93.93,0,1,0,1.86,0h0l.08-6c2.27,1.67,2.78,3.07,2.65,4-.14,1.68-2.16,4.77-2.16,4.77h0c2.88-1.4,4.36-3.63,4.59-5.29.14-2-1.53-3.74-4.07-5.53,3.34-1.93,4.78-3.66,4.64-5.48a5.92,5.92,0,0,0-2.59-4C75.11,61,81.11,59.72,81.38,56.81ZM63.74,68.13c-.83-.51-1.22-1.21-1.14-1.68,0-.66-.18-2.22,2.91-3.35l.07,6.19Zm5.57,0-1.6,1,.08-6c2.82,1.13,2.62,2.62,2.66,3.26C70.53,66.92,70.14,67.62,69.31,68.13Z"/></g></svg>